/* XPM */
static char *b3a24a4909ae497ddca99d92cae9c752xYNYChLBUAsXsLLN[] = {
/* columns rows colors chars-per-pixel */
"64 64 252 2 ",
"   c #000000",
".  c #090707",
"X  c #03000C",
"o  c #120609",
"O  c #07130D",
"+  c #16140D",
"@  c #070517",
"#  c #0E0C13",
"$  c #0E0D1A",
"%  c #140417",
"&  c #130D13",
"*  c #130D1B",
"=  c #0E1117",
"-  c #0E141C",
";  c #141315",
":  c #191315",
">  c #1A1A14",
",  c #14141C",
"<  c #1A141C",
"1  c #151918",
"2  c #1B1A1C",
"3  c #23171A",
"4  c #211A1D",
"5  c #1D251D",
"6  c #29221E",
"7  c #060222",
"8  c #180D21",
"9  c #141522",
"0  c #1A1522",
"q  c #161922",
"w  c #1C1B23",
"e  c #1A152B",
"r  c #1D1D2A",
"t  c #1E1F32",
"y  c #221523",
"u  c #231C23",
"i  c #281A26",
"p  c #241C2A",
"a  c #2A1E2A",
"s  c #261B35",
"d  c #1E2225",
"f  c #1D222A",
"g  c #1F282C",
"h  c #232225",
"j  c #2A2325",
"k  c #2B2B25",
"l  c #24232C",
"z  c #2B232C",
"x  c #25292D",
"c  c #2D2B2C",
"v  c #32252D",
"b  c #352A28",
"n  c #322B2C",
"m  c #2F322E",
"M  c #34332E",
"N  c #262431",
"B  c #2B2532",
"V  c #272933",
"C  c #2C2B33",
"Z  c #262839",
"A  c #2D2D3A",
"S  c #322636",
"D  c #332C33",
"F  c #3A2B33",
"G  c #342D3A",
"H  c #3A2E3C",
"J  c #2D3136",
"K  c #333134",
"L  c #3B3334",
"P  c #393A35",
"I  c #33333B",
"U  c #3B333B",
"Y  c #3C3A3D",
"T  c #422D32",
"R  c #43333C",
"E  c #48373B",
"W  c #443A3C",
"Q  c #40403D",
"!  c #333240",
"~  c #363046",
"^  c #3C3542",
"/  c #3D3B43",
"(  c #393748",
")  c #3D3C49",
"_  c #423543",
"`  c #483444",
"'  c #433C43",
"]  c #4A3D44",
"[  c #443D4B",
"{  c #4A3D4A",
"}  c #513B49",
"|  c #3F4551",
" . c #4C4245",
".. c #474648",
"X. c #45434D",
"o. c #4C434B",
"O. c #53444B",
"+. c #58434A",
"@. c #544A4D",
"#. c #4B4452",
"$. c #494855",
"%. c #4C4A54",
"&. c #574852",
"*. c #534B55",
"=. c #534D5B",
"-. c #5B4E5B",
";. c #4E5058",
":. c #5D5456",
">. c #54525D",
",. c #5C525B",
"<. c #62534F",
"1. c #624B57",
"2. c #645A54",
"3. c #665758",
"4. c #62555C",
"5. c #655B5B",
"6. c #6A5B5C",
"7. c #65635D",
"8. c #6A635E",
"9. c #544F61",
"0. c #565562",
"q. c #5C5563",
"w. c #5C5A64",
"e. c #5B5A69",
"r. c #645564",
"t. c #645B64",
"y. c #6B5B64",
"u. c #635C6A",
"i. c #6B5C6A",
"p. c #735C6C",
"a. c #78596B",
"s. c #675F72",
"d. c #795D71",
"f. c #5F606F",
"g. c #6C6364",
"h. c #65626C",
"j. c #6C636B",
"k. c #6A6668",
"l. c #726B65",
"z. c #766568",
"x. c #72656D",
"c. c #736B6C",
"v. c #7B6D6D",
"b. c #78726E",
"n. c #656372",
"m. c #6C6572",
"M. c #6D6A74",
"N. c #6C6779",
"B. c #6D6B79",
"V. c #736671",
"C. c #7B6474",
"Z. c #746B73",
"A. c #796D75",
"S. c #746D7B",
"D. c #7C6D7A",
"F. c #6C707A",
"G. c #757073",
"H. c #7B7374",
"J. c #767179",
"K. c #7B737B",
"L. c #7C797B",
"P. c #81746E",
"I. c #866A79",
"U. c #846D7C",
"Y. c #857977",
"T. c #83747D",
"R. c #827B7D",
"E. c #87827F",
"W. c #746D80",
"Q. c #7D7482",
"!. c #787785",
"~. c #7D7A84",
"^. c #837583",
"/. c #897686",
"(. c #837B84",
"). c #85768A",
"_. c #857C8A",
"`. c #8B7D8B",
"'. c #937C8A",
"]. c #888386",
"[. c #85828B",
"{. c #8B838D",
"}. c #8A898E",
"|. c #978789",
" X c #91848E",
".X c #878591",
"XX c #8C8492",
"oX c #8C8B94",
"OX c #8A8899",
"+X c #8E8D9A",
"@X c #928693",
"#X c #9A8595",
"$X c #948A94",
"%X c #9A8C96",
"&X c #948D9B",
"*X c #9A8D9B",
"=X c #8E929B",
"-X c #94939C",
";X c #9B929C",
":X c #9A999E",
">X c #A6968F",
",X c #A38A98",
"<X c #A4969A",
"1X c #9B8EA2",
"2X c #8F93A0",
"3X c #9493A1",
"4X c #9A94A2",
"5X c #9599A4",
"6X c #9B9AA3",
"7X c #9C9BAA",
"8X c #A395A2",
"9X c #A994A5",
"0X c #A49AA4",
"qX c #AA9CA6",
"wX c #A39DAA",
"eX c #AB9EAB",
"rX c #B199A9",
"tX c #A59EB1",
"yX c #9DA0AC",
"uX c #A0A1A7",
"iX c #A3A2AC",
"pX c #ADA2AD",
"aX c #ADACAD",
"sX c #B1A4AD",
"dX c #B6A8A9",
"fX c #A4A4B2",
"gX c #ACA4B2",
"hX c #A8A7B7",
"jX c #ADA9B5",
"kX c #ACABBA",
"lX c #B3A6B3",
"zX c #B5AAB5",
"xX c #B8AAB6",
"cX c #B5AABB",
"vX c #BBAEBA",
"bX c #BAB2B6",
"nX c #BBB2BD",
"mX c #C2ADBE",
"MX c #C3B5BC",
"NX c #B9ADC2",
"BX c #B9B6C6",
"VX c #B6B8C8",
"CX c #C2B4C2",
"ZX c #C4B9C7",
"AX c #C3BCD1",
"SX c #C3C0CD",
"DX c #C8C6D8",
"FX c #D2C8DC",
"GX c #CECEE1",
"HX c #D8CDE4",
"JX c #D9D2E8",
"KX c #E2D3E9",
/* pixels */
"aX  D = w r r r p j j j y y > > + > , - - , 1 5 z v C / B.3X5X-X:X:X-X-X-X-X6X:X:X:X6XuXuXiXiXaXfXhXhXkXNXNXcXbXnXnXbXbXxXMXCXZX",
"aX  C @ , 0 2 q p s j a y 2 : + + ; # @ @ $ # ; 2 i h B =.`.4X-X-X-X-X&X-X-X6X6X5X=X:X:X6XuXuXyXfXfXhXkXjXcXxXcXNXNXmXNXvXBXZXBX",
"aX  x @ , < < w z B S c u 3 : > ; # o @ @ @ & & < y 4 p _ D.-X-X=X-X-X&X;X3X-X4X:X:X:X-X:XuXuXiXiXfXhXhXjXcXxXcXNXNXNXvXbXBXnXnX",
"aX  c # : ; 2 j n F F F z u > < & # # # # $ # # & : ; 0 C e.oXoXoXoXoX-X&X&X+X-X5X-X-X6XuXuXaXfXfXhXfXfXgXlXcXgXjXNXcXxXvXnXnXnX",
"aX  c % & % u n P T T U U S j 2 ; ; # & & & # # o = ; < l $.[.oXoXoXoX-X4X1X1X2X2X=X-X6X0XuXwX7XuXiXfXfXgXfX4X_.~.wXzXvXvXvXNXBX",
"aX  c % < < j n E ] E ' _ _ H l 2 & $ & & o o # = o & < u ^ B.+X=XoX=X-X4X1X3X&X2X=X-X6X6X6X6X6X5XuXwXfX1X~.q.! A Z.sXxXvXbXnXMX",
"aX  C % < < p L  . . . .] X.{ ^ a , 9 < ; + + # # & & < w I e.OX=XoX&X+X&X#X*X1X&X-X3X6X6X4X4X3X=XoX+X_.q.A 0 w G t.0XvXnXvXMXCX",
"aX  C , 0 < y F O.&.*.*.%.=.9.{ F y < : < ; = # # , : : 2 I w.~.=XoX&XXXXXXX#X&X&X1X-X6X7X4X@X@X}.(.s.{ 0 0 p z ^ D.pXvXCXnXCXZX",
"aX  c @ , q h F o.r.e.9.=.=.#.o.W b < : 0 , - - : < < 2 d J X.F.}.[.[.].oX}.oX=XoX=X2X3X3X+XXX/.V.#.F u 4 j j M *.$XbXMXZXZXCXMX",
"aX  c X , 0 l I =.n.n.e.0.9.%...W D a < q 9 9 - 9 9 w w l C / >.h.e.>.f.F.L.~..XoXoX&X&XOX~.B.=.S p l l j j 6 P k.iXnXnXnXnXvXMX",
"aX  c X * 0 l D $.N.B.m.e.=.%.[ I x w , < , q - 9 9 w u l x I I I J x g I | $.w.F.L.[.{.).h.[ @ 0 B l l j 6 6 E L.jXbXbXvXvXxXCX",
"aX  z . & & u c =.B.B.n.0.%.#.' J f - & ; & - - 9 q w u h r l C x d - 1 , , , l J %.h.j.>.C @ r l p z z h h M @.}.jXnXnXvXmXxXmX",
"aX  c . : * 3 n o.j.m.u.>.%.[ H c p , ; & = - - q q q w h w d l l d q w h , , < , h D L l , 9 N B z S c x 6 T l.8XlXlXlXcXvXvXvX",
"aX  k o : 3 4 n o.>.e.t.q.*.[ D j y 2 , < q q 9 q 9 , w u u u h u h a c B h 0 p z h l a l r t C D K ^ I V F  .E.pXlXsXlXxXvXvXcX",
"aX  n o < < w S ..{ =.u.u.,.o.I l 2 < 2 q q e 9 9 9 9 w u w 4 h h v n S U ^ S _ { Y F C V Z V A C F ^ ( I ) 5.%XsXsXlXlXzXxXlXzX",
"aX  n o < < u D I G %.m.j.t.$.Y l 2 w q 9 0 9 9 9 e e f z c n v U L W ] { { #.-.s.4.' ' ^ G G D x c G P / %.Z.0XzXpXgXlXlXpXpXzX",
"aX  c o < 8 a F j a *.i.t.*./ I h 5 2 1 , ; , 1 9 p N C I R W W  . .@.@.>.,.t.i.{. Xt.O. .Y U U P K L K / >.XXeXgXeXeXlXeXqXgXxX",
"aX  k   & < j b > a X.*.Q K k h d 1 1 , ; ; 2 q p C J / o.o.O.@.@.:.5.c.A.v.z.Y.dXbX].4.+.} E n b n M K / j.4XeXtXeXqXeXeXeXeXlX",
"aX  c . & & 4 6 : 4 L U D h 2 2 2 > = = = ; < d C I / ....o.] ] O.] 6.b.Y.P.v.].dXbX<Xz.:.+.S D 2 + 6 k P Z.&X8X9X8X8XqXeXpXpXeX",
"aX  c o + : : < < ; a C c h w 2 > > O , , 2 h x K P Y P C a p a i 3 @.P.P.H.v.Y.bXMXdXP.3.+.i p X X + 6 k h.;X0X8X8X8XeXpXsXlXlX",
"aX  j o & : & & < 0 p z l f 2 > > + 1 9 2 h l m P P M h e 8 e e 4 % } P.P.l.6.Y.MXMXMXE.y.] y ~ ( @ X b W W E.<X;X4X<XqXqXpXsXpX",
"aX  k o & o o & : y s z N l w 5 5 1 1 1 2 h x M P L k h e e =.S y a E z.v.6.t.%XMXMXmX>Xz.T H ( ) 8 X S :.j  .|.%X*X;X;X<XpXqXpX",
"aX  c % & & & & * 0 l N V V h h > 1 2 2 2 z m m Y Y S p 8 s $.s y E } 6.z.H.<XxXMXMXqX>Xv.E a.T 7 8 @ G 2.W   H.<X#X,X;X;X0X0XwX",
"aX  v o , * < : = q e e p B z x x d 1 3 h k k M  .o.L i 8 7 7 G } E } 6.Y.0XdXMXCXMX>X>XI.E ` T y 8 y ` 2.E b c.*X1X8X;X4X0X0X0X",
"aX  c X - 9 q # @ 9 - - 9 q l C J A c z z j c m Y o.' j y L B [ &.v +. XvXMXCXZXmXxXrX>XY.3.T T b 4  .:.@.^ ' A.#X&X*X4X0XwXeXpX",
"aX  k X $ 9 q , - 9 - = O = q N C C I I D C c D P o.o.v L 4.O.L S &.*XZXFXFXAXZXsX9X>X,X|.I.I.6.<.2.8.5. .' ,.Y.#X&X&X;X0XwXwXeX",
"aX  c X * e w 0 0 9 2 , , < 0 r l l N B D G D n K ' X.Y L L ' { D.iXSXFXHXFXFXmX,X|.,X,X,X|.,X'.Y.P.7.o.G X.Z.].@X&X#X&X5X0X0XwX",
"aX  D % 9 9 0 , 9 , q q 0 r r f N z l l N C I F K U ( [ R ' *.Q.NXFXGXJXKXKXFXxX'.'.'.,X,X>X>X>XE.@.U c r ^ K.[..XOX+X+X:X0X8X<X",
"aX  c ; w w 2 = @ , , , , 9 e f f l l V Z ! ( Y Y ^ X.X.%.r.).NXDXGXGXJXKXHXFXCX,XI.I.'.,X,X'.>X|. .d r * U S._..XoXoX=X:X:X<XqX",
"aX  c > h l d , $ $ , $ $ * , 9 q w r e t Z S G H U W X.%.M.tXAXDXDXDXHXHXHXHXAXCX'.I.'.#XT.T.dXbX].B w 0 ` K.`.{.oX$X-X-X-X-X8X",
"aX  c ; w r h h w < 9 9 9 - 9 - q 9 $ @ @ 7 9 0 u x K Q >.!.NXVXDXDXDXHXKXJXHXHXZXrX/.I.T./.8XMXCXgXu.B B -.{. X{.}.oX%X-X*X*X<X",
"aX  m O 1 9 q 2 2 r r f r f f d d r l l Z ! ( ) X.;.w.w.F.5XVXVXAXVXAXHXHXHXHXAXCX9X/.I.I.#XmXCXnXCXOX( ! r.@X X|.$X%X%X%X;X;X;X",
"aX  x O - , 9 q r r f l x x m I ^ / ) X.$.=.>.0.0.f.f.e.W.7XNXNXVXVXVXDXGXDXVXNXrX,X/.I./.9XmXvXbXnX+XX.^ q.`.`..XXX@X$X%X*X1X<X",
"aX  m X - 0 q r l C C V V J J I / / [ [ X.X.X.X.$.$.| 9.n.OXyXNXNXVXVXVXVXBXcXeX'.I.a.^.'.rXxXcXcXzX.XX.[ i._.{.{.@X X X%X%X&X1X",
"aX  x < q l l B C z h l l x m J J I C C C I I / | $.9.0.f.!.OX7XyXhXNXVXcXtX&X^.I.1.} I.'.9XlXlXjXgX~.) #.N.`.{.@X@X@X@X$X$X&X3X",
"aX  G e y w w w < > 2 2 w f h h d f h z S I ^ [ X.$.9.e.f.W.W..X3X7X2XOXXX).i.} R T ` 1./.,XrXlXaXpX_.X.$.Q.XX{.{.$X*X$X*X&X&X-X",
"aX  C $ * , , * * : y w 2 q , , w l V G ^ ^ [ [ | X.;.n.K.Q.W.W.B.M.u.$.q.i.H 3 v F R T &.T.%XwX8X-XS.>.u.~.{..X$X%X%X%X-X-X-X5X",
"aX  B @ * 9 9 0 0 * , 1 ; ; 2 h C A A ! ^ ^ [ ( ^ X.u.Q.(.C.r.$.( D z   { -.a a S F v a R y./.%X&X~.%.A m..X`.XX$X%X%X%X%X$X;X4X",
"aX  C % e , 9 0 * * ; u x J J J I A ! I ~ ~ I I / t._.^.p.:.T 3 0 w a y a a p s B a i i ` -.A.D.m.e.w.) t._.[..X$X$X%X%X@X@X&X4X",
"aX  C * l y w q 0 0 2 c I / Y I A ! ( [ ) [ | %.h.Q.W.i.} T j 6 y u j z y < u z c y y B { -.*.o.L B *.n.S.(.[.{.XX$X@X@X X@X&X;X",
"aX  k 2 c B y p l d h 6 k k g P ( | ;.0.f.W.!..XoX(.Z.&.a 6 b T j j k b i : 3 j c 3 > j ' Y F S z % V n.[.{._.[.{.{.{. X'._.$X$X",
"aX  c 5 L D u l f d 5 5 5 d J Q | e.W.!.!.2X2X5X6X{.H. .3 T E E E L E  .F 3 3 j j > > u l j c c a y ^ j.[.]._.`.`.{.{.'. X'.{.-X",
"aX  K h Y W c d f f d d 5 g J | f.!.=X2X2X7XyXyXgX:X X:.b T +.<.3.&.,.,.O.R F j > + 4 i w w v z a ^ r.S.^.^.^.(._.`.XXXX{. X$X%X",
"aX  C l Y %.P x f x V V V / ;.w.!.2X5XyXhXhXyXyXjXqX0XT.E +.1.I.C.a.y.y.r.1.O.F < C ] ~ p z I G ] q.A.K.T.^.Q._._.`.`.XX$X$X$X$X",
"aX  C l ..,.*.Q I ( ) X.$.0.M.J.OX7XyXfXhXNXyXyXjXtXeX,XI.} 1.1.C.d.a.a.r.d.r.Y D 5.B.9.[ [ ' ' >.c.J.K.^.(._._.[.{..X+XoX&X*X*X",
"aX  C l [ ,.t.:.>.0.n.n.Z.~.}.&X2X7XfXfXfXyX7X7XgXcXpXrX'.a.1.a.a.I.I.r.a.I.i.H ,.oX~.i.r.q.#.*.t.J.K.J.~.`._..X`.`.`.XX&X-X4X1X",
"aX  K l { 4.t.g.h.N._..X{.;X7X7X3X7XtXfXfX7X7X7XhXNXrXrXrX'.I.a.I.I.1.a.W.'.a._ (.:X].c.Z.u.,.u.Z.K.L.~.^.(.`.`.`.`.`.@X*X*X&X1X",
"aX  M z O.4.t.g.N.W.`.&X-X0XyXtX7X7X2X7XfXtX2X2X1XcXCX9XrXmX9X/.1.I.I.a.^.'.d.r.;X-X~.T.S.j.h.c.Z.J.K.(.Q._.`.`.`.`.`.@X*X&X%X*X",
"aX  m c o.,.5.y.j.D.).XX*X;XuXyXfX5X+XOX5X7X=X}.+XgXnXsX8X9XlX'.I.I.C.C.U./.4.D.qX=X(.^.A.M.c.J.Z.Z.J.L.Q./._././.`.`.@X$X$X*X*X",
"aX  D c ] -.4.y.s.C.D.^.`.{.=X5X7X5X2XOX}.oX}.[..XwXxXlX9X,X9XrX'.^.U.U.T./.,. X<X}.(.T.H.J.J.Z.Z.Z.J.L.D.^.).`.`.`.'.'.%X%X@X%X",
"aX  G D [ -.5.5.y.x.Z.H.Y._.}.oX2X3X+X.X~.~.~.L.[.0XzXlXrX#XC.I.'.'.'.'.T.y.q.*X-XoX^.H.K.J.H.H.Z.Z.c.F.W.).).`.`.@X@X@X@X%X*X*X",
"jX  G H { -.5.5.g.g.z.H.H.Y.(.[.OXOX.X~.!.K.H.G.L.;XlXcXsX*X} a a./.'./.V.` t.{.{.].^.H.H.G.v.H.A.Z.c.c.C.^.^.`.`.`.XX@X X$X<X0X",
"aX  L G { -.5.5.g.g.l.c.H.Y.L.^.Q.!.Q.J.Z.z.k.g.c.].eXzXsX,X&.a r.C.D./.D.C.`.^.J.J.A.A.K.J.l.b.c.v.A.T.T.T./.(._.Q.D.@X X%X%X-X",
"aX  T a U &.4.2.5.8.8.l.l.b.K.^.).!.S.Z.k.8.7.5.7.K.;XeXpX*X=.a H ` &.-.-.y.C.Z.h.m.Z.V.Z.Z.c.H.A.A.D.D.R.^.R.R./._.^.{. X$X%X%X",
"aX  P i B _ @.:.5.6.8.8.l.c.H.Q.Q.D.c.8.7.7.5.5.5.c.(.-X9X&Xr.} &.{ U p y a R >.t.n.j.m.m.Z.Z.D.H.K.H.D.T.R.R._.[.`._.`.{.$X%X<X",
"aX  F i v S ^ X.>.t.h.k.l.c.Z.D.J.J.c.7.7.7.6.6.2.7.b.[.1X1XOX`.S.q.I 0 w y D o.t.j.j.m.m.N.Z.C.D.J.K.~.Q.L.Q.(.]._.{.{.{.@X*X*X",
"aX  M 4 z B D ^ *.r.i.j.c.l.c.b.G.b.l.8.7.8.5.2.2.6.g.A.).'.1X^.>.) V 1 q p U *.t.i.j.m.Z.V.Z.V.Z.Z.J.~.(.~.K.L.(.(.{.{.@X$X@X$X",
"aX  M 3 j C S ^ %.q.m.N.Z.Z.b.G.G.b.c.g.8.7.t.2.2.6.6.y.V.s.>.Y N f q , r N ^ =.t.i.j.V.V.Z.Z.Z.M.M.J.!.(.~.L.K.L._.`.[.{. X X%X",
"aX  c 2 i c A I [ e.N.W.K.L.H.H.K.H.v.g.g.7.5.2.2.2.5.y.r.-.H i N l q q r V ( =.t.j.x.V.Z.Z.Z.Z.c.c.S.D.L.L.K.(.^.(._.{. X{.{.%X",
"aX  D 2 a z A ! [ e.!.Q.~.~.].~.R.H.A.z.g.5.6.5.2.2.2.<.-.=.{ D C B r e N C { ,.i.z.g.g.j.z.C.Z.B.G.A.A.K.K.H.R.~.Q.(..XoX X}.$X",
"aX  F 4 s p A ! ) 9.!..X.X.X{.{.E.Y.H.c.8.6.3.6.2.3.<.<.O.{ S j j l w w f C $.1.y.g.g.g.g.z.x.M.M.Z.Z.H.L.A.H.L.L.~.(.}.oX}.oX$X",
"aX  F 8 i B Z A ( { f.Q.OX+X$X X].E.H.l.7.6.6.3.2.2.<.O._ S p < 0 u w r l K *.4.t.g.z.j.c.Z.j.h.k.Z.V.Z.Y.H.H.L.L.~.~.}.}.}.}.$X",
"aX  v % i s V Z ! $.0.n.~.&X*X&X}.E.H.l.7.t.6.y.6.:.@...S s i < < 0 < 2 d n O.,.4.h.j.j.x.Z.V.j.m.V.V.A.Z.Z.H.K.K.!.(.}.[.].}.}.",
"aX  C % e i A V B ! [ q.!.3X4X3X-X].E.c.k.g.y.y.y.4.@.Y B i y 8 < < , > 2 n o.4.t.g.j.j.x.V.A.J.G.x.Z.A.c.b.L.Y.~._.[.}.[.[.].oX"
};
